<svg xmlns="http://www.w3.org/2000/svg" width="32" height="32" viewBox="0 0 32 32">
    <path fill="#8E8E93" fill-rule="evenodd" d="M31.413 28.74l-8.761-8.764a12.401 12.401 0 0 0 2.4-7.387C25.022 5.656 19.414.04 12.482 0A12.425 12.425 0 0 0 0 12.498c.03 6.934 5.638 12.55 12.572 12.59 2.666.012 5.265-.84 7.409-2.426l.009-.007 8.753 8.758a1.89 1.89 0 1 0 2.67-2.672zm-18.85-6.162c-5.547-.031-10.033-4.524-10.058-10.07a9.943 9.943 0 0 1 9.984-10c5.547.033 10.033 4.525 10.058 10.072a9.943 9.943 0 0 1-9.984 9.998z"/>
</svg>
