<svg xmlns="http://www.w3.org/2000/svg" width="22" height="22" viewBox="0 0 22 22">
    <path fill="#FFD43B" fill-rule="evenodd" d="M14.68 7.68a.897.897 0 0 1-.85-.643L11.85.644A.904.904 0 0 0 11 0a.904.904 0 0 0-.85.644L8.17 7.037a.897.897 0 0 1-.85.643H.891a.876.876 0 0 0-.846.631.957.957 0 0 0 .318 1.045l5.217 3.976c.308.232.438.65.321 1.031l-1.988 6.421a.98.98 0 0 0 .133.84.864.864 0 0 0 1.245.192l5.18-3.948a.867.867 0 0 1 1.058 0l5.18 3.948a.864.864 0 0 0 1.245-.192.98.98 0 0 0 .133-.84l-1.988-6.42a.948.948 0 0 1 .321-1.032l5.217-3.976a.957.957 0 0 0 .318-1.045.876.876 0 0 0-.846-.63h-6.43z"/>
</svg>
